<svg id="svg1580" xmlns="http://www.w3.org/2000/svg" xmlns:xlink="http://www.w3.org/1999/xlink" viewBox="0 0 129.59 151.06"><defs><style>.cls-1{fill:#b2d3ed;}.cls-2{fill:url(#linear-gradient);}.cls-3{fill:url(#linear-gradient-2);}.cls-4{fill:url(#linear-gradient-3);}.cls-5{fill:url(#linear-gradient-4);}</style><linearGradient id="linear-gradient" x1="-5.85" y1="25.88" x2="115.91" y2="147.64" gradientUnits="userSpaceOnUse"><stop offset="0" stop-color="#0f86b2"/><stop offset="1" stop-color="#073e98"/></linearGradient><linearGradient id="linear-gradient-2" x1="8.44" y1="11.59" x2="130.2" y2="133.35" xlink:href="#linear-gradient"/><linearGradient id="linear-gradient-3" x1="39.08" y1="-19.05" x2="160.84" y2="102.71" xlink:href="#linear-gradient"/><linearGradient id="linear-gradient-4" x1="8.68" y1="11.35" x2="130.44" y2="133.11" xlink:href="#linear-gradient"/></defs><path class="cls-1" d="M72.41,107.42a1.29,1.29,0,0,0-1.29,1.29V111a1.3,1.3,0,0,0,2.59,0v-2.33A1.3,1.3,0,0,0,72.41,107.42Z" transform="translate(-8.33 -3.13)"/><path class="cls-1" d="M136.44,89a12.59,12.59,0,0,0-4.06-8.14l-.39-.36.14-.52a58.4,58.4,0,0,0,1.05-25.24c-1.79-9.21-5.9-15.25-11.55-17a14.76,14.76,0,0,0-3-.61L117.7,37l.09-.89c.06-.63.1-1.25.1-1.84a17.59,17.59,0,0,0-17.57-17.57,17.85,17.85,0,0,0-3,.26l-.76.13-.23-.73a12.92,12.92,0,0,0-23.19-3l-.74,1.16-.74-1.16a12.92,12.92,0,0,0-23.19,3l-.23.72L47.5,17a17.94,17.94,0,0,0-3-.26A17.59,17.59,0,0,0,26.94,34.3q0,.91.09,1.83l.09.89-.89.08a14.84,14.84,0,0,0-3,.62c-5.66,1.74-9.76,7.78-11.56,17a58.47,58.47,0,0,0,1,25.12l.14.51-.39.36a12.91,12.91,0,0,0,1.79,20.24l.65.42-.34.7A15.11,15.11,0,0,0,13,108.71a15.33,15.33,0,0,0,11,14.65l.66.19,0,.68c0,.26,0,.51,0,.76a19.85,19.85,0,0,0,24.77,19.28l.89-.22.19.89A11.75,11.75,0,0,0,71.68,149l.73-1.08.73,1.08a11.75,11.75,0,0,0,21.22-4.08l.2-.89.88.22A19.85,19.85,0,0,0,120.21,125c0-.25,0-.5,0-.75l0-.69.66-.19a15.43,15.43,0,0,0,10.87-12.59,15.26,15.26,0,0,0-1.39-8.71l-.34-.7.65-.42A12.93,12.93,0,0,0,136.44,89ZM127,101.56a12.65,12.65,0,0,1-8.66,19.69,13.57,13.57,0,0,1-1.79.12,12.35,12.35,0,0,1-5.3-1.17l-.82-.37.4-.81a13.39,13.39,0,0,0,1-3.07,1.29,1.29,0,0,0-1-1.53l-.26,0a1.3,1.3,0,0,0-1.27,1,10.34,10.34,0,0,1-17.43,5.24,1.32,1.32,0,0,0-.92-.38,1.3,1.3,0,0,0-.91,2.21,12.93,12.93,0,0,0,18.27,0l.57-.58.58.3a15.33,15.33,0,0,0,7.1,1.74h.11l.88,0v1a17.31,17.31,0,0,1-30.29,11.45,1.28,1.28,0,0,0-1-.44,1.27,1.27,0,0,0-.85.32,1.29,1.29,0,0,0-.12,1.83,20,20,0,0,0,6.08,4.66l.57.28-.09.63a9.17,9.17,0,0,1-18.24-1.29V120.34a1.3,1.3,0,1,0-2.59,0v5.18l-1.53-1.63a15.3,15.3,0,0,0-11.16-4.84h-1v-3.37a12.91,12.91,0,0,0-7.77-11.85,1.26,1.26,0,0,0-.51-.11,1.29,1.29,0,0,0-.52,2.48,10.35,10.35,0,0,1,6.21,9.48v3.78l-.64.19a15.29,15.29,0,0,0-8.45,6.2,1.29,1.29,0,0,0-.19,1,1.27,1.27,0,0,0,1.27,1,1.3,1.3,0,0,0,1.08-.57,12.66,12.66,0,0,1,23.21,7v8.14a9.17,9.17,0,0,1-18.25,1.29l-.09-.63.57-.28a20,20,0,0,0,6.08-4.66,1.31,1.31,0,0,0-.11-1.83,1.34,1.34,0,0,0-.86-.32,1.3,1.3,0,0,0-1,.44A17.31,17.31,0,0,1,27.2,125v-1h1a15.2,15.2,0,0,0,8.43-2.54,1.3,1.3,0,0,0,.36-1.8,1.31,1.31,0,0,0-1.79-.36,12.66,12.66,0,0,1-17.44-17.7,1.29,1.29,0,0,0-.56-1.93,10.33,10.33,0,0,1,4-19.85,1.3,1.3,0,1,0,0-2.59A12.78,12.78,0,0,0,16,78.31l-1,.43-.25-1a55.44,55.44,0,0,1-.61-22.5c1.58-8.1,5.15-13.58,9.78-15a11.53,11.53,0,0,1,3.34-.55,7.9,7.9,0,0,1,4.37,1.29c4.18,2.75,5.93,9.07,6.6,12.59l.16.8-.8.21A17.7,17.7,0,0,0,29.88,59a1.28,1.28,0,0,0-.38.91,1.24,1.24,0,0,0,.37.92,1.26,1.26,0,0,0,.92.38,1.3,1.3,0,0,0,.91-.37,15,15,0,0,1,22.1,1.26l.45.55-.44.55a5.88,5.88,0,0,0-1.3,3.7v1h-8a1.3,1.3,0,1,0,0,2.59h8v9H41l-.2-.6a5.95,5.95,0,1,0,0,3.79l.2-.6H52.51v9h-8a1.3,1.3,0,1,0,0,2.59h8v1a6,6,0,0,0,6,5.95h27.9a6,6,0,0,0,6-5.95v-1h8a1.3,1.3,0,0,0,0-2.59h-8v-9h11.47l.2.6a6,6,0,1,0,0-3.78l-.2.59H92.31v-9h8a1.3,1.3,0,0,0,0-2.59h-8v-1a6,6,0,0,0-6-6H58.46a5.88,5.88,0,0,0-1.45.18l-.56.14-.35-.45a17.46,17.46,0,0,0-13.92-6.84h-.29L41,54l-.13-.74c-.6-3.2-2.54-11-7.76-14.45a10.43,10.43,0,0,0-2.7-1.28l-.46-.14-.13-.47a11.62,11.62,0,0,1-.29-2.59A15,15,0,0,1,55.21,23.82a1.31,1.31,0,0,0,.93.39,1.26,1.26,0,0,0,.9-.37,1.29,1.29,0,0,0,0-1.83,17.42,17.42,0,0,0-5.59-3.85l-.74-.32.25-.77a10.34,10.34,0,0,1,20.14,3.28v8.14a11.5,11.5,0,0,1-20.9,6.61,1.32,1.32,0,0,0-1.06-.55,1.26,1.26,0,0,0-.75.24,1.3,1.3,0,0,0-.31,1.8,14.08,14.08,0,0,0,21.51,1.82l1.51-1.52v16a1.3,1.3,0,0,0,2.59,0V20.35a10.33,10.33,0,0,1,20.13-3.27l.26.76-.74.32A17.55,17.55,0,0,0,88,21.75a1.3,1.3,0,0,0,.9,2.22,1.27,1.27,0,0,0,.91-.37,15,15,0,0,1,25.26,13.2l-.09.54-.53.16a10.78,10.78,0,0,0-4.11,2.33,1.3,1.3,0,0,0,.86,2.26,1.33,1.33,0,0,0,.87-.33,8,8,0,0,1,5.44-2.12,11.41,11.41,0,0,1,3.33.55c4.63,1.43,8.2,6.91,9.78,15A55.43,55.43,0,0,1,130,77.84l-.25,1-1-.45a13.76,13.76,0,0,0-5.72-1.24,1.3,1.3,0,0,0,0,2.59c5.61,0,10.36,4.13,10.81,9.41a10.33,10.33,0,0,1-6.27,10.44,1.29,1.29,0,0,0-.56,1.93ZM38.56,80.81a3.36,3.36,0,1,1-3.35-3.36A3.36,3.36,0,0,1,38.56,80.81Zm16.54,14V66.86a3.37,3.37,0,0,1,3.36-3.36h27.9a3.37,3.37,0,0,1,3.36,3.36v27.9a3.37,3.37,0,0,1-3.36,3.36H58.46A3.37,3.37,0,0,1,55.1,94.76Zm51.16-14a3.36,3.36,0,1,1,3.36,3.36A3.37,3.37,0,0,1,106.26,80.81Z" transform="translate(-8.33 -3.13)"/><path class="cls-1" d="M85.08,28.41a1.14,1.14,0,0,0-.37-.05,1.3,1.3,0,0,0-1.24.92,17.67,17.67,0,0,0-.73,5,1.3,1.3,0,1,0,2.59,0A15,15,0,0,1,86,30a1.27,1.27,0,0,0-.1-1A1.29,1.29,0,0,0,85.08,28.41Z" transform="translate(-8.33 -3.13)"/><path class="cls-1" d="M63.11,91.41h18.6a1.3,1.3,0,0,0,1.3-1.3V71.51a1.3,1.3,0,0,0-1.3-1.3H63.11a1.3,1.3,0,0,0-1.29,1.3v18.6A1.3,1.3,0,0,0,63.11,91.41ZM64.4,72.8h16v16h-16Z" transform="translate(-8.33 -3.13)"/><path class="cls-2" d="M73.84,103.12a1.3,1.3,0,0,0-1.29,1.3v2.32a1.3,1.3,0,0,0,2.59,0v-2.32A1.3,1.3,0,0,0,73.84,103.12Z" transform="translate(-8.33 -3.13)"/><path class="cls-3" d="M137.87,84.67a12.54,12.54,0,0,0-4.06-8.14l-.39-.36.14-.51a58.61,58.61,0,0,0,1.06-25.25c-1.8-9.21-5.91-15.24-11.56-17a14.5,14.5,0,0,0-3-.61l-.89-.08.09-.89a16.72,16.72,0,0,0,.1-1.84,17.59,17.59,0,0,0-17.57-17.57,17.94,17.94,0,0,0-3,.26l-.75.13-.24-.73a12.91,12.91,0,0,0-23.18-3l-.75,1.16L73.1,9.1a12.91,12.91,0,0,0-23.18,3l-.24.73-.75-.13a17.94,17.94,0,0,0-3-.26A17.59,17.59,0,0,0,28.37,30c0,.61,0,1.23.09,1.84l.1.88-.89.08a14.8,14.8,0,0,0-3,.62c-5.66,1.75-9.76,7.78-11.56,17a58.63,58.63,0,0,0,1,25.12l.14.51-.39.36a12.91,12.91,0,0,0,1.79,20.24l.65.43-.34.7a15.07,15.07,0,0,0-1.52,6.65,15.32,15.32,0,0,0,11,14.64l.66.19,0,.69c0,.25,0,.5,0,.75a19.93,19.93,0,0,0,19.9,19.9,20.26,20.26,0,0,0,4.88-.61l.88-.23.19.89a11.76,11.76,0,0,0,21.23,4.08l.72-1.07.73,1.07a11.75,11.75,0,0,0,21.22-4.08l.2-.89.88.23a20.26,20.26,0,0,0,4.88.61,19.93,19.93,0,0,0,19.9-19.9c0-.25,0-.5,0-.75l0-.68.65-.2a15.22,15.22,0,0,0,9.48-21.29l-.34-.7.66-.43A12.9,12.9,0,0,0,137.87,84.67Zm-9.41,12.59A12.65,12.65,0,0,1,119.8,117a13.57,13.57,0,0,1-1.79.12,12.52,12.52,0,0,1-5.3-1.16l-.81-.38.39-.81a13.23,13.23,0,0,0,1-3.07,1.31,1.31,0,0,0-1-1.53l-.26,0a1.3,1.3,0,0,0-1.27,1,10.34,10.34,0,0,1-17.43,5.24,1.3,1.3,0,0,0-.91-.38,1.32,1.32,0,0,0-.92.38,1.3,1.3,0,0,0,0,1.83,12.94,12.94,0,0,0,18.28,0l.56-.58.58.3a15.36,15.36,0,0,0,7.1,1.74h.11l.89,0v.88a.49.49,0,0,1,0,.12,17.31,17.31,0,0,1-30.29,11.45,1.29,1.29,0,0,0-1.83-.11,1.26,1.26,0,0,0-.44.89,1.29,1.29,0,0,0,.33.93,19.7,19.7,0,0,0,6.08,4.66l.57.28-.09.63a9.17,9.17,0,0,1-18.25-1.29V116a1.3,1.3,0,0,0-2.59,0v5.18L71,119.59a15.28,15.28,0,0,0-11.16-4.84h-1v-3.37A12.94,12.94,0,0,0,51.1,99.54a1.35,1.35,0,0,0-.52-.11,1.3,1.3,0,0,0-1.21,1.77,1.27,1.27,0,0,0,.69.71,10.35,10.35,0,0,1,6.21,9.48v3.78l-.63.19a15.22,15.22,0,0,0-8.45,6.2,1.26,1.26,0,0,0-.19,1,1.24,1.24,0,0,0,.55.82,1.28,1.28,0,0,0,1.79-.36,12.66,12.66,0,0,1,23.21,7v8.14a9.17,9.17,0,0,1-18.25,1.29l-.09-.63.57-.28a19.7,19.7,0,0,0,6.08-4.66,1.24,1.24,0,0,0,.32-.93,1.26,1.26,0,0,0-.43-.89,1.29,1.29,0,0,0-1.83.11,17.31,17.31,0,0,1-30.29-11.45,1.1,1.1,0,0,1,0-.16v-.88h1a15.18,15.18,0,0,0,8.43-2.54,1.29,1.29,0,0,0-.72-2.37,1.22,1.22,0,0,0-.71.22A12.67,12.67,0,0,1,17,104.42a12.53,12.53,0,0,1,2.23-7.16,1.29,1.29,0,0,0,.17-1.1,1.32,1.32,0,0,0-.74-.83,10.33,10.33,0,0,1,4-19.85,1.3,1.3,0,0,0,0-2.59A12.83,12.83,0,0,0,17.44,74l-1,.43-.24-1a55.27,55.27,0,0,1-.62-22.5c1.59-8.11,5.15-13.58,9.78-15a11.53,11.53,0,0,1,3.34-.55,7.79,7.79,0,0,1,4.37,1.3c4.18,2.74,5.93,9.06,6.61,12.58l.15.8-.79.21a17.59,17.59,0,0,0-7.75,4.43,1.25,1.25,0,0,0-.39.91,1.33,1.33,0,0,0,.37.92,1.27,1.27,0,0,0,.92.39,1.29,1.29,0,0,0,.91-.37,15,15,0,0,1,22.1,1.25l.45.55-.44.55A5.89,5.89,0,0,0,54,62.56v1h-8a1.3,1.3,0,0,0,0,2.59h8v9H42.47l-.2-.6a5.95,5.95,0,1,0,0,3.79l.2-.6H54v9h-8a1.3,1.3,0,0,0,0,2.59h8v1a6,6,0,0,0,5.94,6H87.8a6,6,0,0,0,5.94-6v-1h8a1.3,1.3,0,0,0,0-2.59h-8v-9h11.47l.21.59a5.94,5.94,0,1,0,0-3.78l-.21.6H93.74v-9h8a1.3,1.3,0,0,0,0-2.59h-8v-1a6,6,0,0,0-5.94-6H59.89a5.94,5.94,0,0,0-1.45.18l-.56.14-.35-.45a17.45,17.45,0,0,0-13.92-6.84h-.29l-.89,0-.14-.74c-.59-3.2-2.54-11-7.76-14.45a10.37,10.37,0,0,0-2.69-1.28l-.47-.14-.13-.47A11.38,11.38,0,0,1,31,30,15,15,0,0,1,56.64,19.52a1.3,1.3,0,0,0,1.84,0,1.29,1.29,0,0,0,0-1.83,17.31,17.31,0,0,0-5.59-3.85l-.74-.32.26-.77a10.33,10.33,0,0,1,20.13,3.28v8.14a11.49,11.49,0,0,1-20.9,6.61,1.31,1.31,0,0,0-1.06-.55,1.23,1.23,0,0,0-.74.24,1.29,1.29,0,0,0-.32,1.8,14.12,14.12,0,0,0,11.52,6,14,14,0,0,0,10-4.17l1.51-1.52v16a1.3,1.3,0,0,0,2.59,0V16.05a10.33,10.33,0,0,1,20.13-3.27l.26.77-.74.32a17.34,17.34,0,0,0-5.34,3.58,1.29,1.29,0,0,0,0,1.83,1.31,1.31,0,0,0,.93.39,1.26,1.26,0,0,0,.9-.37,15,15,0,0,1,25.26,13.2l-.09.55-.52.15a10.74,10.74,0,0,0-4.12,2.33,1.3,1.3,0,0,0,.87,2.26,1.32,1.32,0,0,0,.86-.33A8,8,0,0,1,119,35.35a11.37,11.37,0,0,1,3.32.54c4.64,1.43,8.2,6.91,9.79,15a55.4,55.4,0,0,1-.65,22.63l-.25,1-1-.44a13.65,13.65,0,0,0-5.72-1.25,1.3,1.3,0,1,0,0,2.59c5.6,0,10.35,4.13,10.8,9.41A10.32,10.32,0,0,1,129,95.33a1.31,1.31,0,0,0-.56,1.93ZM40,76.51a3.36,3.36,0,1,1-3.35-3.36A3.36,3.36,0,0,1,40,76.51ZM56.54,90.46V62.56a3.36,3.36,0,0,1,3.35-3.36H87.8a3.36,3.36,0,0,1,3.35,3.36v27.9a3.36,3.36,0,0,1-3.35,3.36H59.89A3.36,3.36,0,0,1,56.54,90.46Zm51.15-13.95a3.36,3.36,0,1,1,3.36,3.36A3.37,3.37,0,0,1,107.69,76.51Z" transform="translate(-8.33 -3.13)"/><path class="cls-4" d="M86.51,24.11a1.5,1.5,0,0,0-.37-.05A1.32,1.32,0,0,0,84.9,25a17.76,17.76,0,0,0-.72,5,1.3,1.3,0,1,0,2.59,0,14.77,14.77,0,0,1,.62-4.28,1.29,1.29,0,0,0-.11-1A1.25,1.25,0,0,0,86.51,24.11Z" transform="translate(-8.33 -3.13)"/><path class="cls-5" d="M64.54,87.11H83.15a1.3,1.3,0,0,0,1.29-1.3V67.21a1.29,1.29,0,0,0-1.29-1.29H64.54a1.29,1.29,0,0,0-1.29,1.29v18.6A1.3,1.3,0,0,0,64.54,87.11Zm1.3-18.61h16v16h-16Z" transform="translate(-8.33 -3.13)"/></svg>