<svg id="svg1580" xmlns="http://www.w3.org/2000/svg" xmlns:xlink="http://www.w3.org/1999/xlink" viewBox="0 0 139.64 113.08"><defs><style>.cls-1{fill:#b7ede7;}.cls-2{fill:url(#linear-gradient);}.cls-3{fill:url(#linear-gradient-2);}.cls-4{fill:url(#linear-gradient-3);}.cls-5{fill:url(#linear-gradient-4);}.cls-6{fill:url(#linear-gradient-5);}.cls-7{fill:url(#linear-gradient-6);}.cls-8{fill:url(#linear-gradient-7);}.cls-9{fill:url(#linear-gradient-8);}</style><linearGradient id="linear-gradient" x1="1.16" y1="16.36" x2="134.76" y2="149.97" gradientUnits="userSpaceOnUse"><stop offset="0" stop-color="#6c32b6"/><stop offset="1" stop-color="#1da0a3"/></linearGradient><linearGradient id="linear-gradient-2" x1="7.37" y1="10.15" x2="140.97" y2="143.76" xlink:href="#linear-gradient"/><linearGradient id="linear-gradient-3" x1="-2.91" y1="20.44" x2="130.69" y2="154.04" xlink:href="#linear-gradient"/><linearGradient id="linear-gradient-4" x1="5.92" y1="11.61" x2="139.52" y2="145.21" xlink:href="#linear-gradient"/><linearGradient id="linear-gradient-5" x1="12.32" y1="5.21" x2="145.92" y2="138.81" xlink:href="#linear-gradient"/><linearGradient id="linear-gradient-6" x1="8.66" y1="8.87" x2="142.26" y2="142.47" xlink:href="#linear-gradient"/><linearGradient id="linear-gradient-7" x1="-18.47" y1="35.99" x2="115.13" y2="169.6" xlink:href="#linear-gradient"/><linearGradient id="linear-gradient-8" x1="-22.13" y1="39.65" x2="111.47" y2="173.26" xlink:href="#linear-gradient"/></defs><path class="cls-1" d="M30.48,63.62c.53,0,1.3-.19,1.89-1.85L37.82,46.4l0,0a1.19,1.19,0,0,0,.11-.44,1.75,1.75,0,0,0-1.58-1.5c-.58,0-1,.18-1.33,1.08-.63,1.79-1.26,3.77-1.87,5.68s-1.3,4.07-2,6l-.7,2-4.6-13.69a1.35,1.35,0,0,0-1.43-1.07c-1,0-1.39.39-1.39,1.39a2.32,2.32,0,0,0,.1.63L28.78,62C29.31,63.45,30,63.62,30.48,63.62Z" transform="translate(-3.53 -22.12)"/><path class="cls-1" d="M53.83,49.89c0-2.71-2.12-5.45-6.19-5.45H42.36c-1.75,0-1.9.76-1.9,1.48V62c0,1.34.57,1.61,1.43,1.61s1.36-.27,1.36-1.61V55.69h4.26l3.54,7.18a1.27,1.27,0,0,0,1.28.78c.56,0,1.29-.14,1.29-1.32a3,3,0,0,0-.28-1.07l-2.83-6.2.53-.34A5.72,5.72,0,0,0,53.83,49.89Zm-6,3H43.25v-5.7h4.58c2.15,0,3.11,1.34,3.11,2.66A3.08,3.08,0,0,1,47.83,52.93Z" transform="translate(-3.53 -22.12)"/><path class="cls-1" d="M141.77,99.54l-2.28-15.07a4,4,0,0,0-4-3.45h-7.4l-.18-.44A17.33,17.33,0,0,0,113.18,70l-.86-.06c-4.21-.28-8.54-.67-12.73-1.06-8.14-.74-16.55-1.51-24.73-1.51-2.65,0-5.1.08-7.5.24l-2.66.18.49-1.11A28.43,28.43,0,0,0,67.69,55,28.82,28.82,0,0,0,13.16,42a1.31,1.31,0,0,0-.08,1,1.32,1.32,0,0,0,.66.77,1.26,1.26,0,0,0,.6.14,1.33,1.33,0,0,0,1.19-.72,26.16,26.16,0,1,1,46.22,24.5l-.2.35L31.46,70a17.09,17.09,0,0,0-9.72,3.85l-.5.41-.46-.45a26,26,0,0,1-8-17,1.33,1.33,0,0,0-1.32-1.23h-.1A1.33,1.33,0,0,0,10.13,57a28.73,28.73,0,0,0,8.78,18.74l.47.45-.4.52a16.55,16.55,0,0,0-2.24,3.86l-.19.44H9.86a4,4,0,0,0-4,3.45L3.57,99.54a4.06,4.06,0,0,0,4,4.66h5.54l-1.48,11.64A17.19,17.19,0,0,0,28.69,135.2H43a30,30,0,0,0,9.89-1.67l18.63-6.48h1.67l18.63,6.48a1.29,1.29,0,0,0,.43.07,1.33,1.33,0,0,0,.44-2.58l-18.84-6.55a1.62,1.62,0,0,0-.44-.07H71.26a1.55,1.55,0,0,0-.43.07L52,131a27.43,27.43,0,0,1-9,1.53H28.69a14.54,14.54,0,0,1-14.42-16.37l1.67-13.13,2.85-20.39,0-.06a14.48,14.48,0,0,1,12.83-9.93L67,70.31c2.43-.16,5-.24,7.74-.24,8.38,0,17,.78,25.32,1.53,4.23.38,8.59.78,12.83,1.06H113a14.56,14.56,0,0,1,13.45,12.67l3.92,30.84A14.54,14.54,0,0,1,116,132.55h-8.87a1.33,1.33,0,1,0,0,2.65H116a17.19,17.19,0,0,0,17-19.36l-1.48-11.64h6.23a4.06,4.06,0,0,0,4-4.66ZM15.61,84.62c0,.13,0,.25,0,.38l-2.11,16.55H7.58a1.38,1.38,0,0,1-1.06-.49,1.35,1.35,0,0,1-.32-1.12L8.47,84.87a1.4,1.4,0,0,1,1.39-1.19h5.9Zm123.21,16.44a1.38,1.38,0,0,1-1.06.49h-5.89l-2.5-17.87h6.12a1.4,1.4,0,0,1,1.38,1.19l2.28,15.07A1.39,1.39,0,0,1,138.82,101.06Z" transform="translate(-3.53 -22.12)"/><path class="cls-1" d="M62.64,81a1.33,1.33,0,1,0,0,2.66H79.88a1.33,1.33,0,0,0,0-2.66Z" transform="translate(-3.53 -22.12)"/><path class="cls-1" d="M96.34,104l9.94-8.48a1.32,1.32,0,0,0,.14-1.87,1.32,1.32,0,0,0-1.87-.15L94.62,102a1.28,1.28,0,0,0-.46.9,1.32,1.32,0,0,0,.31,1,1.34,1.34,0,0,0,1,.46A1.31,1.31,0,0,0,96.34,104Z" transform="translate(-3.53 -22.12)"/><path class="cls-1" d="M89.7,119.53a1.3,1.3,0,0,0,.31,1,1.32,1.32,0,0,0,1.87.15l24.82-21.2a1.33,1.33,0,0,0,.15-1.87,1.37,1.37,0,0,0-1-.46,1.33,1.33,0,0,0-.86.31l-24.82,21.2A1.3,1.3,0,0,0,89.7,119.53Z" transform="translate(-3.53 -22.12)"/><path class="cls-1" d="M34.77,104l9.94-8.48a1.38,1.38,0,0,0,.46-.91,1.35,1.35,0,0,0-.32-1A1.32,1.32,0,0,0,43,93.48L33.05,102a1.33,1.33,0,0,0-.47.9,1.37,1.37,0,0,0,.32,1,1.34,1.34,0,0,0,1,.46A1.31,1.31,0,0,0,34.77,104Z" transform="translate(-3.53 -22.12)"/><path class="cls-1" d="M28.12,119.53a1.35,1.35,0,0,0,.32,1,1.32,1.32,0,0,0,1.87.15l24.82-21.2a1.33,1.33,0,0,0-.86-2.33,1.36,1.36,0,0,0-.87.31l-24.81,21.2A1.35,1.35,0,0,0,28.12,119.53Z" transform="translate(-3.53 -22.12)"/><path class="cls-2" d="M31.83,59.58c.53,0,1.3-.2,1.89-1.85l5.45-15.37,0,0a1.24,1.24,0,0,0,.11-.45,1.75,1.75,0,0,0-1.58-1.5c-.58,0-1,.18-1.33,1.08-.64,1.8-1.26,3.77-1.87,5.68s-1.3,4.07-2,6l-.7,2-4.6-13.7a1.35,1.35,0,0,0-1.43-1.06c-1,0-1.39.39-1.39,1.39a2.38,2.38,0,0,0,.1.63l5.61,15.57C30.66,59.41,31.35,59.58,31.83,59.58Z" transform="translate(-3.53 -22.12)"/><path class="cls-3" d="M55.18,45.85c0-2.71-2.13-5.45-6.19-5.45H43.71c-1.75,0-1.9.76-1.9,1.47V58c0,1.33.57,1.61,1.42,1.61S44.6,59.31,44.6,58V51.65h4.26l3.53,7.18a1.28,1.28,0,0,0,1.29.77c.56,0,1.29-.14,1.29-1.31a3,3,0,0,0-.28-1.08L51.86,51l.53-.34A5.73,5.73,0,0,0,55.18,45.85Zm-6,3H44.6V43.19h4.57c2.16,0,3.12,1.33,3.12,2.66A3.08,3.08,0,0,1,49.17,48.88Z" transform="translate(-3.53 -22.12)"/><path class="cls-4" d="M143.12,95.5l-2.28-15.08a4,4,0,0,0-4-3.44h-7.39l-.18-.45A17.34,17.34,0,0,0,114.53,66l-.86-.06c-4.21-.28-8.54-.68-12.73-1.06-8.14-.74-16.55-1.51-24.73-1.51-2.65,0-5.1.07-7.5.23l-2.66.18.49-1.1A28.48,28.48,0,0,0,69,50.93a28.82,28.82,0,0,0-54.53-13,1.32,1.32,0,0,0-.08,1,1.37,1.37,0,0,0,.66.78,1.39,1.39,0,0,0,.6.14,1.31,1.31,0,0,0,1.18-.73A26.16,26.16,0,1,1,63.09,63.63L62.9,64,32.81,66a17.15,17.15,0,0,0-9.72,3.84l-.5.41-.46-.44a26,26,0,0,1-8-17,1.34,1.34,0,0,0-1.33-1.24h-.09A1.32,1.32,0,0,0,11.48,53,28.75,28.75,0,0,0,20.25,71.7l.47.46-.39.51a17,17,0,0,0-2.24,3.86L17.9,77H11.2a4,4,0,0,0-4,3.44L4.92,95.5a4.06,4.06,0,0,0,4,4.65h5.53L13,111.8A17.19,17.19,0,0,0,30,131.15H44.32a30.28,30.28,0,0,0,9.89-1.66L72.83,123h1.68l18.63,6.48a1.61,1.61,0,0,0,.43.07A1.33,1.33,0,0,0,94,127l-18.84-6.55a1.31,1.31,0,0,0-.44-.07H72.61a1.25,1.25,0,0,0-.43.07L53.33,127a27.32,27.32,0,0,1-9,1.52H30a14.54,14.54,0,0,1-14.41-16.37L17.28,99l2.86-20.39,0-.06A14.5,14.5,0,0,1,33,68.62l35.36-2.35c2.43-.17,5-.25,7.74-.25,8.38,0,17,.78,25.32,1.54,4.23.38,8.59.77,12.83,1.06h.11a14.58,14.58,0,0,1,13.46,12.67l3.92,30.84a14.55,14.55,0,0,1-14.42,16.37h-8.87a1.33,1.33,0,1,0,0,2.65h8.87a17.17,17.17,0,0,0,17.05-19.35l-1.48-11.65h6.23a4.06,4.06,0,0,0,4-4.65ZM17,80.57,16.9,81,14.8,97.5H8.93a1.41,1.41,0,0,1-1.39-1.61L9.82,80.82a1.39,1.39,0,0,1,1.38-1.19h5.91ZM140.17,97a1.38,1.38,0,0,1-1.06.49h-5.89l-2.5-17.87h6.11a1.4,1.4,0,0,1,1.39,1.19l2.28,15.07A1.37,1.37,0,0,1,140.17,97Z" transform="translate(-3.53 -22.12)"/><path class="cls-5" d="M64,77a1.33,1.33,0,1,0,0,2.65H81.23a1.33,1.33,0,1,0,0-2.65Z" transform="translate(-3.53 -22.12)"/><path class="cls-6" d="M97.69,99.94l9.93-8.49a1.33,1.33,0,0,0,.47-.9,1.36,1.36,0,0,0-.32-1,1.34,1.34,0,0,0-1-.46,1.35,1.35,0,0,0-.86.31L96,97.92a1.32,1.32,0,0,0-.46.91,1.35,1.35,0,0,0,.32,1,1.31,1.31,0,0,0,1,.47A1.36,1.36,0,0,0,97.69,99.94Z" transform="translate(-3.53 -22.12)"/><path class="cls-7" d="M91,115.48a1.36,1.36,0,0,0,.32,1,1.34,1.34,0,0,0,1,.46,1.35,1.35,0,0,0,.86-.31l24.82-21.2a1.32,1.32,0,0,0,.14-1.87,1.32,1.32,0,0,0-1.87-.15L91.5,114.58A1.36,1.36,0,0,0,91,115.48Z" transform="translate(-3.53 -22.12)"/><path class="cls-8" d="M36.12,99.94l9.93-8.49a1.28,1.28,0,0,0,.46-.9,1.31,1.31,0,0,0-.31-1,1.34,1.34,0,0,0-1-.46,1.35,1.35,0,0,0-.86.31l-9.94,8.49a1.32,1.32,0,0,0-.46.91,1.35,1.35,0,0,0,.32,1,1.31,1.31,0,0,0,1,.47A1.36,1.36,0,0,0,36.12,99.94Z" transform="translate(-3.53 -22.12)"/><path class="cls-9" d="M29.47,115.48a1.36,1.36,0,0,0,.32,1,1.34,1.34,0,0,0,1,.46,1.35,1.35,0,0,0,.86-.31L56.48,95.4a1.32,1.32,0,0,0,.14-1.87,1.32,1.32,0,0,0-1.87-.15l-24.82,21.2A1.32,1.32,0,0,0,29.47,115.48Z" transform="translate(-3.53 -22.12)"/></svg>