<svg id="svg1580" xmlns="http://www.w3.org/2000/svg" xmlns:xlink="http://www.w3.org/1999/xlink" viewBox="0 0 142.23 142.53"><defs><style>.cls-1{fill:#eec7f2;}.cls-2{fill:url(#linear-gradient);}.cls-3{fill:url(#linear-gradient-2);}.cls-4{fill:url(#linear-gradient-3);}.cls-5{fill:url(#linear-gradient-4);}.cls-6{fill:url(#linear-gradient-5);}.cls-7{fill:url(#linear-gradient-6);}.cls-8{fill:url(#linear-gradient-7);}.cls-9{fill:url(#linear-gradient-8);}</style><linearGradient id="linear-gradient" x1="-19.14" y1="26.7" x2="103.32" y2="149.16" gradientUnits="userSpaceOnUse"><stop offset="0" stop-color="#0067b7"/><stop offset="1" stop-color="#8c0d63"/></linearGradient><linearGradient id="linear-gradient-2" x1="27.28" y1="-19.72" x2="149.74" y2="102.74" xlink:href="#linear-gradient"/><linearGradient id="linear-gradient-3" x1="6.72" y1="0.84" x2="129.18" y2="123.29" xlink:href="#linear-gradient"/><linearGradient id="linear-gradient-4" x1="8.34" y1="-0.78" x2="130.8" y2="121.68" xlink:href="#linear-gradient"/><linearGradient id="linear-gradient-5" x1="-18.51" y1="26.07" x2="103.95" y2="148.52" xlink:href="#linear-gradient"/><linearGradient id="linear-gradient-6" x1="27.46" y1="-19.9" x2="149.91" y2="102.56" xlink:href="#linear-gradient"/><linearGradient id="linear-gradient-7" x1="25.45" y1="-17.89" x2="147.91" y2="104.57" xlink:href="#linear-gradient"/><linearGradient id="linear-gradient-8" x1="-21.95" y1="29.51" x2="100.51" y2="151.97" xlink:href="#linear-gradient"/></defs><path class="cls-1" d="M94.4,113.68,74.16,99.9a1.12,1.12,0,0,0-.64-.19,1.18,1.18,0,0,0-.63.18l-20.8,13.49a1.09,1.09,0,0,0-.25.23,1.11,1.11,0,0,0-.41.89l.28,20a1.13,1.13,0,0,0,.48.92l20.25,14.34.14.09a1.54,1.54,0,0,0,.28.09l.24,0,.21,0,.16,0a.52.52,0,0,0,.16-.07l.14-.08,20.81-15.47a1.16,1.16,0,0,0,.46-.92V114.77a1.11,1.11,0,0,0-.4-.87A1,1,0,0,0,94.4,113.68Zm-32.22,8.77L72,129.37v17.19L54,133.85l-.24-17.17Zm30.57-5.55v15.84L74.24,146.5V129.19l2.87-1.93Zm-1-2.28-15.9,10.74-2.71,1.8-9.61-6.58-8.74-6.19L73.5,102.23Z" transform="translate(-2.23 -7.39)"/><path class="cls-1" d="M142.71,70.32a1,1,0,0,0-.24-.21L122.23,56.33a1.12,1.12,0,0,0-1.26,0L100.16,69.81a1.69,1.69,0,0,0-.66,1.12l.25,16.93,0,.41a1.14,1.14,0,0,0,2.28-.07,1,1,0,0,0,0-.3h0l-.21-14.79,8.43,5.77L120,85.8V103l-9.11-6.26-.16,0,0,0a1.14,1.14,0,0,0-1.93.83,1.08,1.08,0,0,0,.77,1.06l11,7.61.14.08a2,2,0,0,0,.28.1,1.06,1.06,0,0,0,.24,0,1,1,0,0,0,.21,0l0-.24h0l.21.2.16-.07a.59.59,0,0,0,.16-.1l20.79-15.45a1.16,1.16,0,0,0,.46-.92V71.19A1.14,1.14,0,0,0,142.71,70.32Zm-1.89,3V89.17l-18.51,13.76V85.62l2.87-1.94Zm-1-2.28-15.9,10.74-2.71,1.8L111.57,77l-8.74-6.19,18.74-12.16Z" transform="translate(-2.23 -7.39)"/><path class="cls-1" d="M40.49,61.24a1.2,1.2,0,0,0,.66-.21L64.76,44.44a1.12,1.12,0,0,0,.47-.74,1.15,1.15,0,0,0-1.13-1.34,1.13,1.13,0,0,0-.66.21L39.83,59.15a1.15,1.15,0,0,0,.66,2.09Z" transform="translate(-2.23 -7.39)"/><path class="cls-1" d="M88.28,105.37a1.13,1.13,0,0,0,.66-.21l23-16.3a1.18,1.18,0,0,0,.47-.75,1.16,1.16,0,0,0-1.13-1.34,1.18,1.18,0,0,0-.66.21L87.61,103.29a1.13,1.13,0,0,0-.46.74,1.1,1.1,0,0,0,.19.86A1.14,1.14,0,0,0,88.28,105.37Z" transform="translate(-2.23 -7.39)"/><path class="cls-1" d="M35.52,87.35a1.15,1.15,0,0,0-.93.48,1.11,1.11,0,0,0-.2.85,1.17,1.17,0,0,0,.46.75l21.74,15.71a1.17,1.17,0,0,0,.67.22,1.15,1.15,0,0,0,.93-.48,1.12,1.12,0,0,0,.2-.85,1.15,1.15,0,0,0-.46-.75L36.19,87.57A1.14,1.14,0,0,0,35.52,87.35Z" transform="translate(-2.23 -7.39)"/><path class="cls-1" d="M82.75,42.65a1.14,1.14,0,0,0-.93.48,1.12,1.12,0,0,0-.2.85,1.11,1.11,0,0,0,.46.75l21.74,15.71a1.12,1.12,0,0,0,.67.22,1.17,1.17,0,0,0,.93-.48,1.11,1.11,0,0,0,.2-.85,1.15,1.15,0,0,0-.46-.75L83.42,42.87A1.17,1.17,0,0,0,82.75,42.65Z" transform="translate(-2.23 -7.39)"/><path class="cls-1" d="M51.45,42.59a1.14,1.14,0,0,0,2.27-.21.78.78,0,0,0-.06-.31l-.19-13.66,8.43,5.77,9.77,6.92V58.3l-10-6.94a1.13,1.13,0,0,0-1-.57,1.15,1.15,0,0,0-.82,2l.13.13,12.12,8.58.14.09a1.31,1.31,0,0,0,.28.09l.24,0,.21,0,0-.25h0l.21.2.16-.06a.71.71,0,0,0,.14-.1l11.63-8.65.1-.12a1.12,1.12,0,0,0,.27-.72,1.16,1.16,0,0,0-1.15-1.15,1.14,1.14,0,0,0-.9.44l0,0-9.45,7V40.93L76.83,39,92.47,28.63V42l0,.13v.08a1.41,1.41,0,0,0,0,.18,1.16,1.16,0,0,0,1.15,1.15,1.14,1.14,0,0,0,.81-.34,1.19,1.19,0,0,0,.33-.88h0V26.5a1.14,1.14,0,0,0-.4-.87,1,1,0,0,0-.24-.22L73.88,11.64a1.06,1.06,0,0,0-.64-.2,1.18,1.18,0,0,0-.63.18L51.81,25.11a1.09,1.09,0,0,0-.25.23,1.11,1.11,0,0,0-.41.89l.24,16.05Zm3-16.47L73.22,14,91.43,26.35,75.54,37.1l-2.71,1.79-9.62-6.58Z" transform="translate(-2.23 -7.39)"/><path class="cls-1" d="M35.71,95.21a1.09,1.09,0,0,0-.48.11l-.13.07-.12.09-9.93,7.45V85.62l2.87-1.94L43.56,73.33v12.9a1.15,1.15,0,0,0,1.14,1.15,1.17,1.17,0,0,0,1.15-1.16v-15a1.15,1.15,0,0,0-.41-.87,1.12,1.12,0,0,0-.23-.21L25,56.33a1.13,1.13,0,0,0-1.27,0L2.9,69.81a1.38,1.38,0,0,0-.26.23,1.16,1.16,0,0,0-.41.89l.28,20a1.17,1.17,0,0,0,.49.92l20.24,14.34.15.08a1.35,1.35,0,0,0,.28.1,1,1,0,0,0,.23,0,.83.83,0,0,0,.2,0,.45.45,0,0,0,.17,0,.43.43,0,0,0,.16-.07.59.59,0,0,0,.16-.1l11.53-8.7a1.14,1.14,0,0,0-.41-2.21ZM13,78.88l9.76,6.92V103L4.8,90.27,4.56,73.11Zm29.53-7.83L26.62,81.79l-2.71,1.8L14.3,77,5.56,70.81,24.31,58.65Z" transform="translate(-2.23 -7.39)"/><path class="cls-2" d="M95.75,109.64,75.51,95.86a1.13,1.13,0,0,0-.64-.2,1.17,1.17,0,0,0-.63.19l-20.8,13.49a1.09,1.09,0,0,0-.25.23,1.11,1.11,0,0,0-.41.89l.28,20a1.15,1.15,0,0,0,.48.92l20.25,14.34.14.08a1.22,1.22,0,0,0,.28.1,1,1,0,0,0,.23,0l.22,0,.16,0,.16-.07.14-.09L95.93,130.2a1.16,1.16,0,0,0,.46-.92V110.72a1.54,1.54,0,0,0-.64-1.08Zm-32.22,8.77,9.77,6.92v17.19l-18-12.72-.24-17.16Zm30.57-5.55V128.7L75.59,142.46V125.15l2.87-1.94Zm-1-2.28-15.9,10.74-2.71,1.8-9.61-6.59-8.74-6.19L74.85,98.18Z" transform="translate(-2.23 -7.39)"/><path class="cls-3" d="M144.06,66.28a1.23,1.23,0,0,0-.24-.22L123.58,52.29a1.13,1.13,0,0,0-.64-.2,1.16,1.16,0,0,0-.63.18l-20.8,13.5a1.31,1.31,0,0,0-.25.22,1.13,1.13,0,0,0-.41.9l.25,16.92,0,.42a1.14,1.14,0,0,0,2.28-.07,1,1,0,0,0,0-.3h0l-.21-14.8,8.43,5.78,9.77,6.92V99l-9.11-6.26-.16,0,0,0a1.17,1.17,0,0,0-.79-.31,1.15,1.15,0,0,0-1.15,1.15,1.1,1.1,0,0,0,.78,1.06l11,7.6a.68.68,0,0,0,.14.09,1.14,1.14,0,0,0,.28.09l.23,0,.22,0,0-.24h0l.21.2.16-.07.16-.1L144,86.62a1.13,1.13,0,0,0,.46-.92V67.15A1.15,1.15,0,0,0,144.06,66.28Zm-1.89,3V85.13L123.66,98.89V81.58l2.87-1.94Zm-1-2.27-15.9,10.74-2.7,1.79L112.91,73l-8.73-6.19,18.74-12.16Z" transform="translate(-2.23 -7.39)"/><path class="cls-4" d="M41.84,57.19a1.16,1.16,0,0,0,.65-.2L66.11,40.4a1.15,1.15,0,1,0-1.32-1.88L41.18,55.11a1.12,1.12,0,0,0-.47.74,1.07,1.07,0,0,0,.19.85A1.13,1.13,0,0,0,41.84,57.19Z" transform="translate(-2.23 -7.39)"/><path class="cls-5" d="M89.63,101.33a1.23,1.23,0,0,0,.66-.21l23-16.31a1.11,1.11,0,0,0,.46-.74,1.08,1.08,0,0,0-.19-.85,1.13,1.13,0,0,0-.94-.49,1.15,1.15,0,0,0-.66.21L89,99.25a1.11,1.11,0,0,0-.46.74,1.08,1.08,0,0,0,.19.85A1.13,1.13,0,0,0,89.63,101.33Z" transform="translate(-2.23 -7.39)"/><path class="cls-6" d="M36.87,83.31a1.14,1.14,0,0,0-1.13,1.33,1.09,1.09,0,0,0,.46.74L57.94,101.1a1.11,1.11,0,0,0,.67.21,1.16,1.16,0,0,0,.93-.47,1.15,1.15,0,0,0-.26-1.6L37.54,83.52A1.16,1.16,0,0,0,36.87,83.31Z" transform="translate(-2.23 -7.39)"/><path class="cls-7" d="M84.1,38.61A1.15,1.15,0,0,0,83,39.94a1.19,1.19,0,0,0,.46.75L105.16,56.4a1.17,1.17,0,0,0,.67.22A1.16,1.16,0,0,0,107,55.29a1.17,1.17,0,0,0-.46-.75L84.77,38.83A1.17,1.17,0,0,0,84.1,38.61Z" transform="translate(-2.23 -7.39)"/><path class="cls-8" d="M52.8,38.55a1.15,1.15,0,0,0,2.27-.21A.78.78,0,0,0,55,38l-.19-13.66,8.43,5.77L73,37.06V54.25l-10-6.93a1.14,1.14,0,1,0-1.81,1.37l.14.13,12.12,8.59a.75.75,0,0,0,.14.08,1.22,1.22,0,0,0,.28.1,1,1,0,0,0,.23,0,.9.9,0,0,0,.21,0l0-.24h0l.21.2.16-.07a.55.55,0,0,0,.14-.09l11.63-8.65.1-.12a1.14,1.14,0,1,0-1.78-1.43l0,0-9.45,7V36.88l2.87-1.94L93.82,24.59V37.94l0,.14v.08a1.41,1.41,0,0,0,0,.18A1.14,1.14,0,0,0,95,39.48a1.18,1.18,0,0,0,.82-.33,1.16,1.16,0,0,0,.32-.88h0V22.45a1.17,1.17,0,0,0-.4-.87,1.21,1.21,0,0,0-.24-.21L75.23,7.59a1.13,1.13,0,0,0-1.27,0L53.16,21.07a1.09,1.09,0,0,0-.25.23,1.11,1.11,0,0,0-.41.89l.24,16Zm3-16.48L74.57,9.91l18.21,12.4L76.88,33.05l-2.71,1.8-9.61-6.59Z" transform="translate(-2.23 -7.39)"/><path class="cls-9" d="M37.06,91.16a1.17,1.17,0,0,0-.49.11l-.12.07-.12.09-9.94,7.46V81.58l2.87-1.94L44.91,69.28V82.19a1.15,1.15,0,0,0,1.14,1.15,1.18,1.18,0,0,0,1.15-1.17v-15a1.13,1.13,0,0,0-.41-.87,1.19,1.19,0,0,0-.23-.22L26.32,52.29a1.18,1.18,0,0,0-.65-.2,1.12,1.12,0,0,0-.62.18L4.25,65.77A1.09,1.09,0,0,0,4,66a1.19,1.19,0,0,0-.41.9l.28,20a1.16,1.16,0,0,0,.49.92L24.59,102.1l.15.09a1,1,0,0,0,.28.09l.23,0a.83.83,0,0,0,.2,0l.17,0,.16-.07a.79.79,0,0,0,.16-.1l11.52-8.7a1.13,1.13,0,0,0,.74-1.07A1.15,1.15,0,0,0,37.06,91.16ZM14.33,74.84l9.77,6.92V99l-18-12.72L5.9,69.06ZM43.87,67,28,77.75l-2.71,1.79L15.65,73,6.91,66.77,25.65,54.61Z" transform="translate(-2.23 -7.39)"/></svg>