<svg id="svg1580" xmlns="http://www.w3.org/2000/svg" xmlns:xlink="http://www.w3.org/1999/xlink" viewBox="0 0 140.4 135.43"><defs><style>.cls-1{fill:#b2d3ed;}.cls-2{fill:url(#linear-gradient);}.cls-3{fill:url(#linear-gradient-2);}.cls-4{fill:url(#linear-gradient-3);}.cls-5{fill:url(#linear-gradient-4);}.cls-6{fill:url(#linear-gradient-5);}.cls-7{fill:url(#linear-gradient-6);}</style><linearGradient id="linear-gradient" x1="-14.56" y1="37.88" x2="105.85" y2="158.3" gradientUnits="userSpaceOnUse"><stop offset="0" stop-color="#0f86b2"/><stop offset="1" stop-color="#073e98"/></linearGradient><linearGradient id="linear-gradient-2" x1="4.58" y1="18.73" x2="125" y2="139.15" xlink:href="#linear-gradient"/><linearGradient id="linear-gradient-3" x1="-25.46" y1="48.77" x2="94.96" y2="169.19" xlink:href="#linear-gradient"/><linearGradient id="linear-gradient-4" x1="64.76" y1="-41.44" x2="185.18" y2="78.97" xlink:href="#linear-gradient"/><linearGradient id="linear-gradient-5" x1="52.52" y1="-29.2" x2="172.93" y2="91.22" xlink:href="#linear-gradient"/><linearGradient id="linear-gradient-6" x1="59.67" y1="-36.36" x2="180.09" y2="84.06" xlink:href="#linear-gradient"/></defs><path class="cls-1" d="M40.07,95.74A1.51,1.51,0,0,0,38,95.18a1.56,1.56,0,0,0-.71.92,1.53,1.53,0,0,0,.15,1.15,1.51,1.51,0,1,0,2.62-1.51Z" transform="translate(-3.52 -10.94)"/><path class="cls-1" d="M107.23,63.73l6.29-9.53a1.51,1.51,0,0,0,0-1.6L108,43a1.52,1.52,0,0,0-1.31-.75h-.09L95.23,43,84.64,24.62a7,7,0,0,0-6-3.53h-.07a7,7,0,0,0-5.93,3.25l0,.05L36.27,70.64,12.58,84.32a18.1,18.1,0,0,0,9.08,33.78h0a17.85,17.85,0,0,0,6.69-1.29l1-.4,14.46,25.06a9.86,9.86,0,0,0,8.52,4.91,9.82,9.82,0,0,0,8.47-14.72l-8.92-15.45,8.27-4.78a1.5,1.5,0,0,0,.55-2.06l-4.47-7.75,1.72-.34L111,90.88h.09a7,7,0,0,0,5.7-10.56Zm-1.34-18.38,4.59,8-5,7.49L96.92,45.89ZM29.17,113.06A15.08,15.08,0,1,1,14.09,87L36.73,73.88,51.8,100Zm29,20.12a6.78,6.78,0,0,1-2.48,9.26A6.79,6.79,0,0,1,46.44,140L32,114.92l11.75-6.78Zm-.86-23.61-6.95,4-4-7,7-4ZM54.64,98.85,39.1,71.94,71.71,30.4l33.77,58.48Zm59.57-13a4,4,0,0,1-3.41,2,2.4,2.4,0,0,0-.57.09l-.75.14-.87.16L73.73,27.83l1.07-1.36a5,5,0,0,0,.31-.42,4,4,0,0,1,3.41-1.93h.07a4,4,0,0,1,3.43,2l32.16,55.7A4,4,0,0,1,114.21,85.81Z" transform="translate(-3.52 -10.94)"/><path class="cls-1" d="M29.18,100.51a1.53,1.53,0,0,0-.75.2l-4.79,2.77A4,4,0,0,1,18.15,102a1.51,1.51,0,0,0-1.31-.76,1.45,1.45,0,0,0-.76.21,1.5,1.5,0,0,0-.55,2.06A7.06,7.06,0,0,0,21.65,107h0a7,7,0,0,0,3.5-.94l4.79-2.76a1.52,1.52,0,0,0-.76-2.83Z" transform="translate(-3.52 -10.94)"/><path class="cls-1" d="M142.4,27.44a1.5,1.5,0,0,0-1.32-.78,1.48,1.48,0,0,0-.74.19l-15.4,8.57a1.52,1.52,0,0,0,.73,2.84,1.48,1.48,0,0,0,.74-.19l15.41-8.57a1.52,1.52,0,0,0,.72-.91A1.49,1.49,0,0,0,142.4,27.44Z" transform="translate(-3.52 -10.94)"/><path class="cls-1" d="M137.8,55.6l-10.69-2.86a1.74,1.74,0,0,0-.39-.05,1.51,1.51,0,0,0-1.46,1.12,1.49,1.49,0,0,0,.15,1.15,1.53,1.53,0,0,0,.92.71L137,58.53a1.83,1.83,0,0,0,.4,0,1.52,1.52,0,0,0,1.46-1.12,1.54,1.54,0,0,0-.15-1.15A1.56,1.56,0,0,0,137.8,55.6Z" transform="translate(-3.52 -10.94)"/><path class="cls-1" d="M110.69,28.57a1.32,1.32,0,0,0,.39.06,1.53,1.53,0,0,0,1.46-1.13l2.87-10.68A1.54,1.54,0,0,0,114.34,15a1.83,1.83,0,0,0-.4-.05A1.52,1.52,0,0,0,112.48,16l-2.86,10.69A1.5,1.5,0,0,0,110.69,28.57Z" transform="translate(-3.52 -10.94)"/><path class="cls-2" d="M41.4,91.77A1.54,1.54,0,0,0,40.08,91a1.41,1.41,0,0,0-.75.2,1.51,1.51,0,1,0,2.07.55Z" transform="translate(-3.52 -10.94)"/><path class="cls-3" d="M108.55,59.77l6.3-9.54a1.52,1.52,0,0,0,.05-1.59l-5.53-9.58a1.53,1.53,0,0,0-1.32-.76H108L96.55,39,86,20.65a7,7,0,0,0-6-3.52h-.08a7,7,0,0,0-5.93,3.24l0,.05L37.59,66.68,13.9,80.36a18.11,18.11,0,0,0-6.63,24.73,18.17,18.17,0,0,0,15.71,9h0a18,18,0,0,0,6.69-1.28l1-.41L45.14,137.5a9.86,9.86,0,0,0,8.53,4.91,9.8,9.8,0,0,0,8.46-14.72l-8.92-15.45,8.27-4.77A1.53,1.53,0,0,0,62,105.4l-4.48-7.75,1.72-.33,53.05-10.41h.09a7.05,7.05,0,0,0,5.71-10.56Zm-1.34-18.39,4.6,8-5,7.5L98.25,41.92ZM30.49,109.09A15.08,15.08,0,1,1,15.41,83L38.05,69.91,53.13,96Zm29,20.12a6.78,6.78,0,0,1-5.86,10.17A6.8,6.8,0,0,1,47.77,136L33.32,111l11.74-6.78Zm-.85-23.61-7,4-4-7,7-4ZM56,94.88,40.43,68,73,26.43,106.8,84.91Zm59.57-13a4,4,0,0,1-3.41,2,3.14,3.14,0,0,0-.57.09l-.74.15-.87.16L75.05,23.87l1.07-1.37c.18-.23.24-.3.32-.42a3.94,3.94,0,0,1,3.4-1.93h.07a4,4,0,0,1,3.43,2L115.5,77.87A4,4,0,0,1,115.53,81.84Z" transform="translate(-3.52 -10.94)"/><path class="cls-4" d="M30.5,96.54a1.44,1.44,0,0,0-.75.21L25,99.51A4,4,0,0,1,19.47,98a1.51,1.51,0,0,0-2.62,1.52A7.09,7.09,0,0,0,23,103.08h0a7.06,7.06,0,0,0,3.5-.94l4.79-2.77a1.51,1.51,0,0,0,.56-2.07A1.55,1.55,0,0,0,30.5,96.54Z" transform="translate(-3.52 -10.94)"/><path class="cls-5" d="M143.72,23.47a1.5,1.5,0,0,0-1.32-.78,1.56,1.56,0,0,0-.73.19l-15.41,8.58A1.52,1.52,0,0,0,127,34.3a1.46,1.46,0,0,0,.73-.2l15.41-8.57a1.52,1.52,0,0,0,.72-.91A1.49,1.49,0,0,0,143.72,23.47Z" transform="translate(-3.52 -10.94)"/><path class="cls-6" d="M139.12,51.64l-10.69-2.87a1.67,1.67,0,0,0-.39-.05,1.52,1.52,0,0,0-.39,3l10.69,2.86a1.31,1.31,0,0,0,.39,0,1.52,1.52,0,0,0,1.46-1.12,1.54,1.54,0,0,0-.15-1.15A1.48,1.48,0,0,0,139.12,51.64Z" transform="translate(-3.52 -10.94)"/><path class="cls-7" d="M112,24.61a1.74,1.74,0,0,0,.39.05,1.51,1.51,0,0,0,1.46-1.12l2.87-10.69a1.54,1.54,0,0,0-.15-1.15,1.5,1.5,0,0,0-.92-.7,1.34,1.34,0,0,0-.4-.06,1.53,1.53,0,0,0-1.46,1.13l-2.86,10.68A1.52,1.52,0,0,0,112,24.61Z" transform="translate(-3.52 -10.94)"/></svg>