<svg id="svg1580" xmlns="http://www.w3.org/2000/svg" xmlns:xlink="http://www.w3.org/1999/xlink" viewBox="0 0 140.02 150.17"><defs><style>.cls-1{fill:#eec7f2;}.cls-2{fill:url(#linear-gradient);}.cls-3{fill:url(#linear-gradient-2);}.cls-4{fill:url(#linear-gradient-3);}.cls-5{fill:url(#linear-gradient-4);}</style><linearGradient id="linear-gradient" x1="-4.77" y1="12.05" x2="147.8" y2="164.63" gradientUnits="userSpaceOnUse"><stop offset="0" stop-color="#0067b7"/><stop offset="1" stop-color="#8c0d63"/></linearGradient><linearGradient id="linear-gradient-2" x1="11.34" y1="-4.06" x2="163.92" y2="148.51" xlink:href="#linear-gradient"/><linearGradient id="linear-gradient-3" x1="-40.11" y1="40.49" x2="112.46" y2="193.07" xlink:href="#linear-gradient"/><linearGradient id="linear-gradient-4" x1="-9.16" y1="9.54" x2="143.42" y2="162.11" xlink:href="#linear-gradient"/></defs><g id="layer1"><g id="path5895"><path class="cls-1" d="M70.21,153.05l-63.69.7a1.64,1.64,0,0,1-1.65-1.62L3.33,10.65A1.62,1.62,0,0,1,4.94,9L110,7.85a1.63,1.63,0,0,1,1.65,1.62l.32,29a1.64,1.64,0,0,1-3.27,0l-.3-27.4L6.61,12.25,8.12,150.46l62.05-.68a1.64,1.64,0,1,1,0,3.27Z" transform="translate(-3.33 -3.57)"/></g><g id="rect5897"><path class="cls-1" d="M137.76,152.37l-53.5.59A4.21,4.21,0,0,1,80,148.79L79,53.36a4.22,4.22,0,0,1,4.16-4.26l53.5-.58a4.21,4.21,0,0,1,4.25,4.17l1,95.43A4.2,4.2,0,0,1,137.76,152.37ZM83.17,52.49a.82.82,0,0,0-.81.83l1,95.44a.82.82,0,0,0,.83.81l53.49-.58a.83.83,0,0,0,.82-.83l-1-95.44a.83.83,0,0,0-.84-.81Z" transform="translate(-3.33 -3.57)"/></g><g id="circle5899"><circle class="cls-1" cx="49.04" cy="135.34" r="3.33"/></g><g id="circle5901"><circle class="cls-1" cx="110.28" cy="134.68" r="3.33"/></g></g><g id="layer1-2" data-name="layer1"><g id="path5895-2" data-name="path5895"><path class="cls-2" d="M71.63,148.78,8,149.47a1.63,1.63,0,0,1-1.66-1.62L4.75,6.37A1.64,1.64,0,0,1,6.37,4.72L111.44,3.57a1.65,1.65,0,0,1,1.66,1.62l.31,29a1.64,1.64,0,1,1-3.27,0l-.3-27.4L8,8,9.55,146.18l62.05-.67a1.64,1.64,0,1,1,0,3.27Z" transform="translate(-3.33 -3.57)"/></g><g id="rect5897-2" data-name="rect5897"><path class="cls-3" d="M139.18,148.1l-53.49.58a4.22,4.22,0,0,1-4.26-4.16l-1-95.44a4.22,4.22,0,0,1,4.17-4.25l53.49-.59a4.23,4.23,0,0,1,4.26,4.17l1,95.43A4.23,4.23,0,0,1,139.18,148.1ZM84.59,48.22a.82.82,0,0,0-.81.83l1,95.43a.82.82,0,0,0,.83.81l53.5-.58a.82.82,0,0,0,.81-.83l-1-95.43a.83.83,0,0,0-.83-.82Z" transform="translate(-3.33 -3.57)"/></g><g id="circle5899-2" data-name="circle5899"><circle class="cls-4" cx="50.47" cy="131.07" r="3.33"/></g><g id="circle5901-2" data-name="circle5901"><circle class="cls-5" cx="111.71" cy="130.4" r="3.33"/></g></g></svg>